<svg width="46" height="45" viewBox="0 0 46 45" fill="none" xmlns="http://www.w3.org/2000/svg">
<g clip-path="url(#clip0_83_758)">
<path fill-rule="evenodd" clip-rule="evenodd" d="M5.92945 0.100006C5.04803 0.100006 4.3335 0.814539 4.3335 1.69596V43.3041C4.3335 44.1855 5.04803 44.9 5.92945 44.9H40.0709C40.9523 44.9 41.6668 44.1855 41.6668 43.3041V1.69596C41.6668 1.69392 41.6668 1.69189 41.6668 1.68985V7.56667L34.2001 0.100006H5.92945Z" fill="#E4E7EC"/>
<path fill-rule="evenodd" clip-rule="evenodd" d="M34.2002 0.100006V7.56667H41.6669L34.2002 0.100006Z" fill="#98A2B3"/>
<rect x="2.4668" y="18.7667" width="41.0667" height="18.6667" rx="1.59595" fill="#CC400C"/>
<path d="M11.292 32.7428V23.4572H14.7741C15.4874 23.4572 16.0859 23.5902 16.5695 23.8562C17.0562 24.1222 17.4234 24.488 17.6713 24.9535C17.9222 25.4159 18.0476 25.9419 18.0476 26.5313C18.0476 27.1267 17.9222 27.6557 17.6713 28.1182C17.4204 28.5806 17.0501 28.9448 16.5605 29.2108C16.0708 29.4738 15.4678 29.6053 14.7514 29.6053H12.4436V28.2224H14.5247C14.9418 28.2224 15.2834 28.1499 15.5494 28.0048C15.8154 27.8597 16.0118 27.6602 16.1388 27.4063C16.2688 27.1524 16.3338 26.8607 16.3338 26.5313C16.3338 26.2018 16.2688 25.9116 16.1388 25.6607C16.0118 25.4099 15.8139 25.2149 15.5448 25.0759C15.2789 24.9338 14.9358 24.8628 14.5156 24.8628H12.9741V32.7428H11.292Z" fill="white"/>
<path d="M22.6552 32.7428H19.5087V23.4572H22.7187C23.6406 23.4572 24.4325 23.6431 25.0945 24.0149C25.7595 24.3837 26.2703 24.9142 26.627 25.6063C26.9836 26.2985 27.162 27.1267 27.162 28.091C27.162 29.0582 26.9821 29.8894 26.6224 30.5846C26.2658 31.2798 25.7504 31.8133 25.0764 32.1851C24.4053 32.5569 23.5983 32.7428 22.6552 32.7428ZM21.1908 31.2874H22.5736C23.2205 31.2874 23.76 31.1695 24.1922 30.9337C24.6245 30.695 24.9494 30.3398 25.167 29.8683C25.3847 29.3937 25.4935 28.8013 25.4935 28.091C25.4935 27.3806 25.3847 26.7912 25.167 26.3227C24.9494 25.8512 24.6275 25.499 24.2013 25.2663C23.7781 25.0305 23.2522 24.9126 22.6235 24.9126H21.1908V31.2874Z" fill="white"/>
<path d="M28.7602 32.7428V23.4572H34.7088V24.8673H30.4423V27.3882H34.3007V28.7982H30.4423V32.7428H28.7602Z" fill="white"/>
</g>
<defs>
<clipPath id="clip0_83_758">
<rect width="44.8" height="44.8" fill="white" transform="translate(0.600098 0.100006)"/>
</clipPath>
</defs>
</svg>
